<?xml version="1.0" encoding="UTF-8"?>
<svg xmlns="http://www.w3.org/2000/svg" version="1.1" xmlns:xlink="http://www.w3.org/1999/xlink" viewBox="0 0 1920 1080">
  <defs>
    <style>
      .cls-1 {
        font-family: YuMincho-Regular, 'Yu Mincho';
        font-size: 60px;
      }

      .cls-2 {
        fill: none;
      }

      .cls-3 {
        fill: #060001;
      }
    </style>
    <path id="path" d="M1105,683c0,181.7-147.3,329-329,329s-329-147.3-329-329,147.3-329,329-329,329,147.3,329,329Z"/>
  </defs>
  <!-- Generator: Adobe Illustrator 28.6.0, SVG Export Plug-In . SVG Version: 1.2.0 Build 709)  -->
  <g>
    <g id="_レイヤー_1" data-name="レイヤー_1">
      <path d="M776,357c44.01,0,86.7,8.62,126.89,25.62,38.82,16.42,73.68,39.93,103.62,69.87,29.94,29.94,53.45,64.8,69.87,103.62,17,40.19,25.62,82.88,25.62,126.89s-8.62,86.7-25.62,126.89c-16.42,38.82-39.93,73.68-69.87,103.62-29.94,29.94-64.8,53.45-103.62,69.87-40.19,17-82.88,25.62-126.89,25.62s-86.7-8.62-126.89-25.62c-38.82-16.42-73.68-39.93-103.62-69.87-29.94-29.94-53.45-64.8-69.87-103.62-17-40.19-25.62-82.88-25.62-126.89s8.62-86.7,25.62-126.89c16.42-38.82,39.93-73.68,69.87-103.62,29.94-29.94,64.8-53.45,103.62-69.87,40.19-17,82.88-25.62,126.89-25.62M776,354c-181.7,0-329,147.3-329,329s147.3,329,329,329,329-147.3,329-329-147.3-329-329-329h0Z"/>
      <text>
        <textPath startOffset="100.51%" xlink:href="#path"><tspan class="cls-1"><tspan class="cls-2" x="0" y="0">I</tspan><tspan class="cls-3" x="0" y="0">IKEBUKURO COFFEE FESTIVAL IKEBUKURO COFFEE FESTIVAL </tspan></tspan>
        </textPath></text>
      <circle cx="776" cy="683" r="24.94"/>
    </g>
  </g>
</svg>